<svg width="40" height="40" viewBox="0 0 40 40" fill="none" xmlns="http://www.w3.org/2000/svg">
<g id="Group 90">
<path id="Ellipse 15" d="M40 20C40 31.0457 31.0457 40 20 40C8.9543 40 0 31.0457 0 20C0 8.9543 8.9543 0 20 0C31.0457 0 40 8.9543 40 20ZM4.00202 20C4.00202 28.8354 11.1646 35.998 20 35.998C28.8354 35.998 35.998 28.8354 35.998 20C35.998 11.1646 28.8354 4.00202 20 4.00202C11.1646 4.00202 4.00202 11.1646 4.00202 20Z" fill="white" fill-opacity="0.17"/>
<path id="Ellipse 16" d="M36 20C36 28.8366 28.8366 36 20 36C11.1634 36 4 28.8366 4 20C4 11.1634 11.1634 4 20 4C28.8366 4 36 11.1634 36 20ZM6.49308 20C6.49308 27.4597 12.5403 33.5069 20 33.5069C27.4597 33.5069 33.5069 27.4597 33.5069 20C33.5069 12.5403 27.4597 6.49308 20 6.49308C12.5403 6.49308 6.49308 12.5403 6.49308 20Z" fill="white"/>
<path id="Vector" d="M25.977 19.0198C25.8358 18.0681 25.1915 15.4796 24.6576 14.7802C24.6075 14.716 24.5583 14.6516 24.5089 14.5873C24.4849 14.556 24.4403 14.5487 24.4073 14.5706C24.3401 14.6154 24.2725 14.6601 24.2046 14.7044C24.2013 14.7049 24.1978 14.7052 24.1939 14.7057C24.1613 14.7098 24.1204 14.7117 24.0723 14.7117C23.5581 14.7117 22.283 14.501 21.4138 14.3044C21.0775 14.23 20.8144 14.1692 20.6111 14.122C20.2489 14.0383 20.0838 14 19.9975 14C19.9153 14 19.7341 14.0419 19.3733 14.1258C19.1668 14.1736 18.9069 14.234 18.5885 14.3039C17.6376 14.5193 16.1968 14.7551 15.8048 14.7058C15.7964 14.7049 15.7895 14.7041 15.7853 14.702L15.5927 14.5714C15.5597 14.5484 15.5142 14.5554 15.49 14.5871L15.3409 14.7806C14.8085 15.478 14.164 18.0671 14.0232 19.0168C13.7109 20.6459 16.598 24.9374 19.8665 26.9301L19.9595 26.9884C19.9718 26.9962 19.9858 27 19.9996 27C20.0136 27 20.0276 26.9962 20.0398 26.9882L20.1316 26.9301C23.4011 24.9366 26.288 20.6454 25.977 19.0198Z" fill="white"/>
</g>
</svg>
