<svg width="18" height="13" viewBox="0 0 18 13" fill="none" xmlns="http://www.w3.org/2000/svg">
    <g id="Vector">
        <path
            d="M1.28571 4.12195L0 4.43902V11.4146L1.28571 11.7317V9.82927H1.92857V6.02439H1.28571V4.12195Z"
            fill="rgb(251 146 60)" />
        <path
            d="M16.7143 5.39024V7.29268H16.0714V11.0976H16.7143V13L18 12.6829V5.70732L16.7143 5.39024Z"
            fill="rgb(251 146 60)" />
        <path
            d="M15.1071 5.39024H13.41C13.2718 5.39024 13.1496 5.30146 13.1046 5.17463L12.2882 2.75537C12.2432 2.62537 12.1211 2.53976 11.9829 2.53976H4.71857C4.58679 2.53976 4.46786 2.61902 4.41964 2.73951L3.9375 3.92537C3.88929 4.04585 3.77036 4.12512 3.63857 4.12512H2.89286C2.71607 4.12512 2.57143 4.26781 2.57143 4.44219V11.4178C2.57143 11.5922 2.71607 11.7349 2.89286 11.7349H4.94357C5.06571 11.7349 5.17821 11.8015 5.22964 11.9093L5.69571 12.8256C5.75036 12.9334 5.86286 13 5.98179 13H15.1039C15.2807 13 15.4254 12.8573 15.4254 12.6829V5.70732C15.4254 5.53293 15.2807 5.39024 15.1039 5.39024H15.1071ZM7.70464 11.0976L8.41179 7.92683H7.23214L8.41179 4.7561H10.2986L9.35679 6.87098H10.7711L7.70786 11.0976H7.70464Z"
            fill="rgb(251 146 60)" />
        <path
            d="M4.82143 1.26829H6.42857V1.90244H10.2857V1.26829H11.8929C12.0696 1.26829 12.2143 1.12561 12.2143 0.951219V0.317073C12.2143 0.142683 12.0696 0 11.8929 0H4.82143C4.64464 0 4.5 0.142683 4.5 0.317073V0.951219C4.5 1.12561 4.64464 1.26829 4.82143 1.26829Z"
            fill="rgb(251 146 60)" />
    </g>
</svg>