<svg width="8" height="12" viewBox="0 0 8 12" fill="none" xmlns="http://www.w3.org/2000/svg">
<g id="Vector">
<path fill-rule="evenodd" clip-rule="evenodd" d="M6.13767 10.1173H1.27201V3.00971C1.27201 2.63508 1.56566 2.33082 1.92853 2.33082H5.48132C5.84403 2.33082 6.13767 2.63508 6.13767 3.00971V10.1173ZM5.30815 3.7034V5.07715C5.30815 5.36011 5.08535 5.59068 4.81243 5.59068H2.59758C2.32338 5.59068 2.10186 5.36011 2.10186 5.07715V3.7034C2.10186 3.41961 2.32322 3.1902 2.59758 3.1902H4.81227C5.08535 3.1902 5.30815 3.41944 5.30815 3.7034Z" fill="white"/>
<path d="M1.11743 10.3895H6.29135C6.35608 10.3895 6.40973 10.445 6.40973 10.5123V10.8772C6.40973 10.9454 6.35608 11 6.29135 11H1.11743C1.05253 11 1 10.9454 1 10.8772V10.5123C0.99984 10.445 1.05237 10.3895 1.11743 10.3895Z" fill="white"/>
<path d="M5.56745 1.43647L6.50331 2.43558V3.26169C6.50331 3.40376 6.61463 3.51904 6.75166 3.51904C6.88884 3.51904 7 3.40376 7 3.26169V2.22631L5.92519 1.07798C5.82929 0.975503 5.6717 0.974339 5.57371 1.07265C5.4746 1.1718 5.47267 1.33416 5.56745 1.43647Z" fill="white"/>
<path d="M6.78289 3.99435V9.23448H6.46162M1.11743 10.3895H6.29135C6.35608 10.3895 6.40973 10.445 6.40973 10.5123V10.8772C6.40973 10.9454 6.35608 11 6.29135 11H1.11743C1.05253 11 1 10.9454 1 10.8772V10.5123C0.99984 10.445 1.05237 10.3895 1.11743 10.3895ZM6.13767 10.1173H1.27201V3.00971C1.27201 2.63508 1.56566 2.33082 1.92853 2.33082H5.48132C5.84403 2.33082 6.13767 2.63508 6.13767 3.00971V10.1173ZM5.30815 5.07715V3.7034C5.30815 3.41944 5.08535 3.1902 4.81227 3.1902H2.59758C2.32322 3.1902 2.10186 3.41961 2.10186 3.7034V5.07715C2.10186 5.36011 2.32338 5.59068 2.59758 5.59068H4.81243C5.08535 5.59068 5.30815 5.36011 5.30815 5.07715ZM5.56745 1.43647L6.50331 2.43558V3.26169C6.50331 3.40376 6.61463 3.51904 6.75166 3.51904C6.88884 3.51904 7 3.40376 7 3.26169V2.22631L5.92519 1.07798C5.82929 0.975503 5.6717 0.974339 5.57371 1.07265C5.4746 1.1718 5.47267 1.33416 5.56745 1.43647Z" stroke="white" stroke-width="0.1" stroke-linecap="round"/>
</g>
</svg>
