<svg width="70" height="93" viewBox="0 0 70 93" fill="none" xmlns="http://www.w3.org/2000/svg">
<g id="Group 128">
<mask id="mask0_10_338" style="mask-type:alpha" maskUnits="userSpaceOnUse" x="0" y="0" width="70" height="93">
<rect id="Rectangle 157" x="0.5" y="0.5" width="69" height="91.2268" rx="6.5" fill="#D9D9D9" stroke="black"/>
</mask>
<g mask="url(#mask0_10_338)">
<g id="Vector">
<path fill-rule="evenodd" clip-rule="evenodd" d="M13.4849 38.5827L13.9599 43.5163C17.275 44.7742 20.114 46.8358 22.3009 49.4219L27.1114 48.2311C27.6183 48.9491 28.0867 49.6924 28.5155 50.4598L25.3631 54.284C26.7518 57.3726 27.3841 60.824 27.0872 64.3579L31.3303 66.9164C31.1818 67.7818 30.985 68.6394 30.7475 69.4849L25.815 69.9599C24.5572 73.2761 22.4945 76.114 19.9095 78.3009L21.1003 83.1114C20.3834 83.6183 19.639 84.0867 18.8715 84.5155L15.0485 81.3642C11.9588 82.7518 8.50629 83.3841 4.97461 83.0872L2.41491 87.3314C1.54958 87.1818 0.690853 86.9861 -0.153584 86.7475L-0.628578 81.8161C-3.94365 80.5572 -6.78373 78.4945 -8.97069 75.9095L-13.78 77.1003C-14.2858 76.3834 -14.7553 75.639 -15.183 74.8715L-12.0318 71.0485C-13.4194 67.9588 -14.0538 64.5074 -13.7558 60.9746L-18 58.4149C-17.8505 57.5496 -17.6547 56.692 -17.4173 55.8464L-12.4837 55.3725C-11.2269 52.0563 -9.1642 49.2163 -6.57812 47.0293L-7.7689 42.2211C-7.05091 41.7142 -6.30873 41.2458 -5.54126 40.817L-1.71601 43.9682C1.37146 42.5806 4.82397 41.9462 8.35785 42.2442L10.9154 38C11.7796 38.1462 12.6427 38.3453 13.4849 38.5827ZM9.28255 51.1448C15.6444 52.5896 19.6313 58.9207 18.1865 65.2826C16.7417 71.6444 10.4118 75.6313 4.04991 74.1876C-2.31195 72.7417 -6.30104 66.4118 -4.85516 60.0499C-3.41148 53.688 2.91959 49.7001 9.28255 51.1448Z" fill="white" fill-opacity="0.06"/>
<path fill-rule="evenodd" clip-rule="evenodd" d="M40.5641 66.3096L43.899 70.0534C46.4708 69.4707 49.0811 69.4509 51.5759 69.9347L54.792 66.0875C56.0114 66.4591 57.2 66.9286 58.3435 67.4938L58.0532 72.4988C60.2028 73.8545 62.0918 75.6566 63.5673 77.8414L68.5614 77.395C69.1617 78.522 69.6686 79.6897 70.0776 80.9003L66.3337 84.2351C66.9165 86.8069 66.9363 89.4172 66.4536 91.912L70.2997 95.1271C69.9281 96.3475 69.4586 97.5361 68.8934 98.6785L63.8884 98.3894C62.5327 100.539 60.7317 102.427 58.5458 103.903L58.9922 108.896C57.8652 109.498 56.6975 110.004 55.4869 110.414L52.152 106.67C49.5814 107.253 46.9711 107.272 44.4762 106.789L41.2601 110.636C40.0397 110.264 38.8511 109.794 37.7087 109.23L37.9978 104.225C35.8494 102.869 33.9593 101.066 32.4837 98.8819L27.4908 99.3272C26.8893 98.2013 26.3846 97.0325 25.9734 95.8231L29.7184 92.4882C29.1346 89.9164 29.1148 87.3061 29.5986 84.8113L25.7513 81.5952C26.123 80.3758 26.5936 79.1872 27.1587 78.0448L32.1638 78.334C33.5195 76.1844 35.3216 74.2954 37.5064 72.8199L37.061 67.8269C38.187 67.2255 39.3558 66.7186 40.5641 66.3096ZM44.2355 79.6006C49.0734 77.5071 54.6942 79.7326 56.7877 84.5705C58.8811 89.4095 56.6546 95.0292 51.8167 97.1227C46.9788 99.2162 41.358 96.9908 39.2645 92.1517C37.171 87.3138 39.3964 81.6941 44.2355 79.6006Z" fill="white" fill-opacity="0.06"/>
</g>
<g id="Vector_2">
<path fill-rule="evenodd" clip-rule="evenodd" d="M73.8778 -7.55578L71.436 -4.83746C72.4107 -2.40426 72.7109 0.170259 72.4001 2.651L75.4526 4.67819C75.3162 5.31229 75.1468 5.93803 74.9444 6.55427L71.291 6.74325C70.3081 9.03959 68.7498 11.1047 66.6821 12.7047L67.4146 16.2919C66.8704 16.6425 66.3062 16.9628 65.7282 17.2549L63.0034 14.8044C60.5734 15.7723 58.0005 16.0633 55.52 15.7452L53.503 18.7921C52.8692 18.6542 52.2425 18.4821 51.6258 18.2778L51.4253 14.6239C49.1265 13.6323 47.0565 12.0665 45.4515 9.99439L41.8663 10.7157C41.5148 10.1697 41.1916 9.60423 40.8989 9.02522L43.3396 6.30799C42.3654 3.87424 42.0653 1.29858 42.3754 -1.18162L39.3235 -3.20821C39.4599 -3.84116 39.6294 -4.46805 39.8323 -5.08368L43.4845 -5.27272C44.4686 -7.56901 46.0257 -9.6353 48.0934 -11.2342L47.361 -14.8226C47.9057 -15.1725 48.4694 -15.4934 49.0474 -15.7855L51.7721 -13.3339C54.2016 -14.3024 56.7756 -14.5944 59.2567 -14.2757L61.2725 -17.3215C61.9069 -17.1831 62.5324 -17.0122 63.1491 -16.8079L63.3508 -13.1528C65.6485 -12.1624 67.7197 -10.5977 69.3252 -8.52381L72.9092 -9.24627C73.262 -8.70252 73.5856 -8.13305 73.8778 -7.55578ZM64.9537 -3.58276C67.3507 0.603587 65.9062 5.93196 61.7286 8.31639C57.5509 10.7008 52.2199 9.23969 49.8223 5.05389C47.4259 0.866994 48.8687 -4.46203 53.0469 -6.84586C57.224 -9.23089 62.5562 -7.76971 64.9537 -3.58276Z" fill="white" fill-opacity="0.06"/>
<path fill-rule="evenodd" clip-rule="evenodd" d="M72.3622 21.0202L71.9967 24.7036C73.5994 25.8142 74.9156 27.2265 75.9005 28.8269L79.5984 28.6611C80.0063 29.5108 80.3458 30.3924 80.6107 31.2971L77.7474 33.6342C78.0861 35.4812 78.0521 37.4087 77.6035 39.3018L80.3435 41.8001C80.0317 42.6891 79.651 43.5474 79.1981 44.3737L75.5146 43.9965C74.4093 45.5961 73.0016 46.9082 71.4052 47.889L71.5827 51.5872C70.734 51.9932 69.8537 52.3299 68.9506 52.5915L66.6045 49.7205C64.7591 50.0535 62.8331 50.0134 60.9379 49.5587L58.4495 52.2911C57.5593 51.9769 56.7006 51.5928 55.8724 51.1377L56.2379 47.4544C54.6358 46.3443 53.3196 44.9321 52.3346 43.3316L48.6368 43.4974C48.2282 42.6472 47.8894 41.765 47.6244 40.8614L50.4872 38.5238C50.149 36.6774 50.1831 34.7487 50.6311 32.8561L47.8922 30.3578C48.2029 29.4689 48.5853 28.6112 49.0365 27.7842L52.7205 28.162C53.8253 26.5618 55.233 25.2497 56.8299 24.2696L56.6525 20.5702C57.5006 20.1648 58.3815 19.8286 59.2846 19.567L61.6306 22.438C63.476 22.105 65.4032 22.1451 67.2972 22.5998L69.7862 19.8681C70.6759 20.1817 71.5357 20.5658 72.3622 21.0202ZM66.9799 29.6464C70.5364 31.2386 72.1388 35.4103 70.5583 38.9628C68.9773 42.5157 64.8117 44.1043 61.2552 42.5121C57.6987 40.92 56.0963 36.7482 57.6774 33.1952C59.2579 29.6428 63.4229 28.0537 66.9799 29.6464Z" fill="white" fill-opacity="0.06"/>
</g>
<path id="Vector_3" fill-rule="evenodd" clip-rule="evenodd" d="M40.5424 38.0785L40.3156 40.3649C41.3104 41.0544 42.1275 41.931 42.7389 42.9245L45.0343 42.8216C45.2876 43.349 45.4983 43.8963 45.6628 44.4579L43.8853 45.9087C44.0956 47.0552 44.0745 48.2517 43.796 49.4269L45.4969 50.9777C45.3033 51.5296 45.067 52.0623 44.7859 52.5753L42.4993 52.3411C41.8132 53.3341 40.9393 54.1486 39.9484 54.7574L40.0586 57.0531C39.5317 57.3051 38.9853 57.5142 38.4247 57.6766L36.9683 55.8944C35.8228 56.1011 34.6272 56.0762 33.4508 55.7939L31.9061 57.49C31.3534 57.295 30.8204 57.0566 30.3063 56.7741L30.5332 54.4877C29.5386 53.7986 28.7216 52.9219 28.1102 51.9284L25.8147 52.0313C25.5611 51.5035 25.3508 50.9559 25.1863 50.395L26.9634 48.9439C26.7535 47.7978 26.7746 46.6005 27.0527 45.4257L25.3525 43.8749C25.5454 43.323 25.7828 42.7906 26.0628 42.2773L28.3498 42.5118C29.0355 41.5185 29.9094 40.704 30.9007 40.0955L30.7905 37.7991C31.317 37.5474 31.8638 37.3388 32.4244 37.1764L33.8807 38.9586C35.0263 38.7519 36.2226 38.7768 37.3983 39.059L38.9434 37.3633C39.4957 37.5579 40.0294 37.7964 40.5424 38.0785ZM37.2014 43.4332C39.4091 44.4216 40.4038 47.0112 39.4227 49.2164C38.4412 51.422 35.8554 52.408 33.6477 51.4197C31.44 50.4314 30.4453 47.8417 31.4268 45.6362C32.4078 43.431 34.9933 42.4445 37.2014 43.4332Z" fill="white"/>
<rect id="Rectangle 158" x="1" y="1" width="68" height="90.2268" rx="6" stroke="#212121" stroke-width="2"/>
</g>
</g>
</svg>
