<svg width="40" height="40" viewBox="0 0 40 40" fill="none" xmlns="http://www.w3.org/2000/svg">
<g id="Group 83">
<g id="Group 89">
<path id="Ellipse 15" d="M40 20C40 31.0457 31.0457 40 20 40C8.9543 40 0 31.0457 0 20C0 8.9543 8.9543 0 20 0C31.0457 0 40 8.9543 40 20ZM4.00202 20C4.00202 28.8354 11.1646 35.998 20 35.998C28.8354 35.998 35.998 28.8354 35.998 20C35.998 11.1646 28.8354 4.00202 20 4.00202C11.1646 4.00202 4.00202 11.1646 4.00202 20Z" fill="#CF4E5B" fill-opacity="0.17"/>
<path id="Ellipse 16" d="M36 20C36 28.8366 28.8366 36 20 36C11.1634 36 4 28.8366 4 20C4 11.1634 11.1634 4 20 4C28.8366 4 36 11.1634 36 20ZM6.49308 20C6.49308 27.4597 12.5403 33.5069 20 33.5069C27.4597 33.5069 33.5069 27.4597 33.5069 20C33.5069 12.5403 27.4597 6.49308 20 6.49308C12.5403 6.49308 6.49308 12.5403 6.49308 20Z" fill="#CF4E5B"/>
<path id="Vector" d="M16.2747 14.0014C17.5268 13.9632 18.8988 14.6892 19.983 16.4293C19.9908 16.4419 20.0091 16.4419 20.017 16.4293C21.1012 14.6892 22.4732 13.9632 23.7253 14.0014C24.9756 14.0396 26.0859 14.8401 26.641 16.1072C27.6943 18.5117 26.6047 22.6099 21.0209 26.3509C20.4039 26.7643 19.5961 26.7643 18.9791 26.3509C13.3953 22.6099 12.3057 18.5117 13.359 16.1072C13.9141 14.8401 15.0244 14.0396 16.2747 14.0014Z" fill="#CF4E5B"/>
</g>
</g>
</svg>
