<svg width="40" height="40" viewBox="0 0 40 40" fill="none" xmlns="http://www.w3.org/2000/svg">
<g id="Group 86">
<path id="Ellipse 15" d="M40 20C40 31.0457 31.0457 40 20 40C8.9543 40 0 31.0457 0 20C0 8.9543 8.9543 0 20 0C31.0457 0 40 8.9543 40 20ZM4.00202 20C4.00202 28.8354 11.1646 35.998 20 35.998C28.8354 35.998 35.998 28.8354 35.998 20C35.998 11.1646 28.8354 4.00202 20 4.00202C11.1646 4.00202 4.00202 11.1646 4.00202 20Z" fill="#FF9900" fill-opacity="0.17"/>
<path id="Ellipse 16" d="M36 20C36 28.8366 28.8366 36 20 36C11.1634 36 4 28.8366 4 20C4 11.1634 11.1634 4 20 4C28.8366 4 36 11.1634 36 20ZM6.49308 20C6.49308 27.4597 12.5403 33.5069 20 33.5069C27.4597 33.5069 33.5069 27.4597 33.5069 20C33.5069 12.5403 27.4597 6.49308 20 6.49308C12.5403 6.49308 6.49308 12.5403 6.49308 20Z" fill="#FF9900"/>
<g id="Vector">
<path d="M26.9161 15.5972L26.9063 15.5883C26.7949 15.4873 26.6143 15.4873 26.5029 15.5883L23.7527 18.0812C23.6537 18.1751 23.4946 18.1912 23.3752 18.1192C23.2466 18.0365 23.2164 17.875 23.3077 17.7585C23.3169 17.7467 23.3273 17.7356 23.3385 17.7254L26.0887 15.2324C26.1923 15.1426 26.2099 14.9984 26.1306 14.8901C26.0393 14.7736 25.8611 14.7462 25.7326 14.829C25.7196 14.8374 25.7074 14.8467 25.6961 14.8569L22.9459 17.3499C22.8468 17.4438 22.6878 17.4598 22.5684 17.3879C22.4398 17.3051 22.4096 17.1436 22.5009 17.0271C22.5101 17.0153 22.5204 17.0042 22.5317 16.994L25.2819 14.501C25.3855 14.4112 25.4032 14.267 25.3238 14.1588C25.2325 14.0423 25.0543 14.0149 24.9258 14.0976C24.9128 14.106 24.9006 14.1154 24.8893 14.1256L22.1391 16.6186C22.04 16.7125 21.881 16.7285 21.7616 16.6565C21.633 16.5738 21.6028 16.4123 21.6941 16.2958C21.7033 16.284 21.7137 16.2729 21.7249 16.2627L24.4859 13.7599C24.5973 13.6589 24.5973 13.4952 24.4859 13.3942L24.4761 13.3853C24.3689 13.2877 24.196 13.2836 24.0834 13.376C23.5306 13.8305 21.9643 15.1256 21.0157 15.9855C20.4876 16.4641 20.2871 17.1645 20.4918 17.8155C20.538 17.9604 20.5395 18.114 20.4961 18.2597L21.5389 19.2049C21.6995 19.1656 21.869 19.1669 22.0289 19.2089C22.7471 19.3944 23.5198 19.2126 24.0477 18.7339C24.9963 17.8741 26.425 16.4542 26.9264 15.9531C27.0284 15.851 27.0239 15.6943 26.9161 15.5972Z" fill="#FF9900"/>
<path d="M18.2175 20.9592C18.0672 20.9582 17.9174 20.9412 17.7714 20.9085C16.7934 21.6751 15.4514 22.6753 13.5538 24.0608C12.7938 24.6157 12.9016 25.2502 13.3643 25.6697C13.8271 26.0893 14.5271 26.1869 15.1393 25.498C17.0685 23.3268 18.3218 21.9563 19.2321 21.042L18.9821 20.8153C18.7407 20.9099 18.4805 20.9588 18.2175 20.9592Z" fill="#FF9900"/>
<path d="M13.6632 13.1757C13.1295 12.692 13.1749 13.2703 13.1447 14.1406C13.1024 15.3601 13.6943 16.952 15.5594 18.754C16.3249 19.4935 16.9642 19.9778 17.5111 20.2596C18.0055 20.5304 18.6339 20.492 19.0838 20.1635L25.2271 25.7323C25.5701 26.0537 26.1251 26.0891 26.5143 25.8145C26.915 25.5164 26.9733 24.9804 26.6444 24.6172C26.625 24.5957 26.6043 24.575 26.5826 24.5553L13.6632 13.1757Z" fill="#FF9900"/>
</g>
</g>
</svg>
