<svg width="18" height="13" viewBox="0 0 18 13" fill="none" xmlns="http://www.w3.org/2000/svg">
<g id="Group">
<path id="Vector" d="M8.73559 0C5.73002 6.59559 8.73559 12.1893 8.73559 12.1893C8.73559 12.1893 18 11.333 18 6.09456C18 1.16884 8.73559 0 8.73559 0Z" fill="white"/>
<path id="Vector_2" d="M6.21474 4.51001H0.64692C0.289636 4.51001 0 4.79965 0 5.15693C0 5.51421 0.289636 5.80385 0.646919 5.80385H6.11945C6.1305 5.38627 6.16227 4.95367 6.21474 4.51001Z" fill="white"/>
<g id="Vector_3">
<path d="M0 1.01314C0 1.37042 0.289639 1.66006 0.646926 1.66006H6.85555C6.99806 1.23423 7.16401 0.802743 7.35712 0.366211H0.646926C0.289639 0.366211 0 0.655849 0 1.01314Z" fill="white"/>
<path d="M6.61824 2.43817H0.646926C0.289638 2.43817 0 2.7278 0 3.08509C0 3.44238 0.289638 3.73202 0.646926 3.73202H6.32657C6.40055 3.30967 6.49826 2.87741 6.61824 2.43817Z" fill="white"/>
<path d="M6.12124 6.58197H0.646918C0.289635 6.58197 0 6.87161 0 7.22889C0 7.58618 0.289636 7.87581 0.646919 7.87581H6.21435C6.16622 7.46634 6.13382 7.03397 6.12124 6.58197Z" fill="white"/>
<path d="M6.32614 8.65383H0.646919C0.289635 8.65383 0 8.94347 0 9.30075C0 9.65803 0.289636 9.94767 0.646919 9.94767H6.60998C6.50585 9.55825 6.40744 9.12616 6.32614 8.65383Z" fill="white"/>
<path d="M0.64692 10.7258C0.289636 10.7258 0 11.0154 0 11.3727C0 11.73 0.289636 12.0196 0.646919 12.0196H7.35272C7.25086 11.8075 7.05111 11.3605 6.8413 10.7258H0.64692Z" fill="white"/>
</g>
</g>
</svg>
