<svg width="110" height="22" viewBox="0 0 110 22" fill="none" xmlns="http://www.w3.org/2000/svg">
<g id="Group 112">
<path id="Rectangle 162" d="M14.5 0H21.5L7 22H0L14.5 0Z" fill="#C4FF48"/>
<path id="Rectangle 163" d="M25.5 0H32.5L18 22H11L25.5 0Z" fill="#C4FF48"/>
<path id="Rectangle 164" d="M36.5 0H43.5L29 22H22L36.5 0Z" fill="#C4FF48"/>
<path id="Rectangle 165" d="M47.5 0H54.5L40 22H33L47.5 0Z" fill="#C4FF48"/>
<path id="Rectangle 166" d="M58.5 0H65.5L51 22H44L58.5 0Z" fill="#C4FF48"/>
<path id="Rectangle 167" d="M69.5 0H76.5L62 22H55L69.5 0Z" fill="#FFC148"/>
<path id="Rectangle 168" d="M80.5 0H87.5L73 22H66L80.5 0Z" fill="#FF9548"/>
<path id="Rectangle 169" d="M91.5 0H98.5L84 22H77L91.5 0Z" fill="#FF6948"/>
<path id="Rectangle 170" d="M102.5 0H109.5L95 22H88L102.5 0Z" fill="#FF4848"/>
</g>
</svg>
