<svg width="116" height="22" viewBox="0 0 116 22" fill="none" xmlns="http://www.w3.org/2000/svg">
<g id="Group 112">
<path id="Rectangle 162" d="M14.5 0H21.5L7 22H0L14.5 0Z" fill="#C4FF48"/>
<path id="Rectangle 163" d="M25 0H32L17.5 22H10.5L25 0Z" fill="#C4FF48"/>
<path id="Rectangle 164" d="M35.5 0H42.5L28 22H21L35.5 0Z" fill="#C4FF48"/>
<path id="Rectangle 165" d="M46 0H53L38.5 22H31.5L46 0Z" fill="#C4FF48"/>
<path id="Rectangle 166" d="M56.5 0H63.5L49 22H42L56.5 0Z" fill="#C4FF48"/>
<path id="Rectangle 167" d="M67 0H74L59.5 22H52.5L67 0Z" fill="#FFC148"/>
<path id="Rectangle 168" d="M77.5 0H84.5L70 22H63L77.5 0Z" fill="#FF9548"/>
<path id="Rectangle 169" d="M88 0H95L80.5 22H73.5L88 0Z" fill="#FF6948"/>
<path id="Rectangle 170" d="M98.5 0H105.5L91 22H84L98.5 0Z" fill="#FF4848"/>
<path id="Rectangle 171" d="M108.5 0H115.5L101 22H94L108.5 0Z" fill="#FF4848"/>
</g>
</svg>
