<svg width="18" height="18" viewBox="0 0 18 18" fill="none" xmlns="http://www.w3.org/2000/svg">
<g id="Group 113">
<path id="Vector" d="M10.5404 4.11987L10.45 5.3922C10.4411 5.5232 10.3576 5.70572 10.2647 5.7986L8.58718 7.47611C8.4947 7.56858 8.4947 7.71987 8.58718 7.81274L10.1961 9.4213C10.2886 9.51418 10.4399 9.51418 10.5328 9.4213L12.2102 7.7438C12.3027 7.65132 12.4856 7.56777 12.6162 7.55844L13.8886 7.468L10.5404 4.11987ZM11.1038 7.80423L10.6123 8.2958C10.5198 8.38827 10.3681 8.38827 10.2752 8.2958L9.71264 7.73325C9.62021 7.64037 9.62021 7.48909 9.71264 7.39621L10.2042 6.90463C10.2971 6.81216 10.4484 6.81216 10.5413 6.90463L11.1038 7.46719C11.1963 7.56006 11.1963 7.71135 11.1038 7.80423Z" fill="white"/>
<path id="Vector_2" d="M5.2992 15.6871L3.04738 17.939C2.9545 18.0315 2.80281 18.0315 2.70993 17.939L0.0699638 15.2986C-0.0233213 15.2057 -0.0233213 15.0541 0.0699638 14.9615L2.32178 12.7097L5.2992 15.6871Z" fill="white"/>
<g id="Group">
<path id="Vector_3" d="M9.49348 12.3381L6.17699 15.6545C6.08451 15.7474 5.93283 15.7474 5.84035 15.6545L5.58605 15.4007L2.60863 12.4232L2.35433 12.1685C2.26185 12.0761 2.26185 11.9244 2.35433 11.8319L5.67082 8.5154C5.76329 8.42293 5.91498 8.42293 6.00786 8.5154L6.77766 9.28561L5.98799 10.0753C5.89511 10.1682 5.89551 10.3198 5.98799 10.4123L7.59654 12.0213C7.68902 12.1134 7.84071 12.1138 7.93359 12.0213L8.72367 11.2313L9.49343 12.0014C9.58636 12.0939 9.58636 12.2456 9.49348 12.3381Z" fill="white"/>
<path id="Vector_4" d="M9.49348 12.3381L6.17699 15.6545C6.08451 15.7474 5.93283 15.7474 5.84035 15.6545L5.58605 15.4007L2.60863 12.4232L2.35433 12.1685C2.26185 12.0761 2.26185 11.9244 2.35433 11.8319L5.67082 8.5154C5.76329 8.42293 5.91498 8.42293 6.00786 8.5154L6.77766 9.28561L5.98799 10.0753C5.89511 10.1682 5.89551 10.3198 5.98799 10.4123L7.59654 12.0213C7.68902 12.1134 7.84071 12.1138 7.93359 12.0213L8.72367 11.2313L9.49343 12.0014C9.58636 12.0939 9.58636 12.2456 9.49348 12.3381Z" fill="white"/>
</g>
<path id="Vector_5" d="M17.9385 3.04748L15.3066 5.68015L12.3287 2.70233L14.9614 0.0696596C15.0539 -0.0232199 15.2056 -0.0232199 15.2985 0.0696596L17.9385 2.71044C18.0317 2.80291 18.0317 2.9546 17.9385 3.04748Z" fill="white"/>
<path id="Vector_6" d="M15.8065 7.09087L15.1142 7.78321C15.0218 7.87568 14.87 7.87568 14.7776 7.78321L14.4239 7.42994L10.5785 3.58457L10.2252 3.2313C10.1328 3.13842 10.1328 2.98674 10.2252 2.89426L10.9175 2.20192C11.0104 2.10945 11.1617 2.10945 11.2546 2.20192L15.0197 5.96699L15.8065 6.75383C15.8994 6.84671 15.8994 6.9984 15.8065 7.09087Z" fill="white"/>
</g>
</svg>
