<svg width="33" height="35" viewBox="0 0 33 35" fill="none" xmlns="http://www.w3.org/2000/svg">
<g id="Group 130">
<g id="Vector">
<path fill-rule="evenodd" clip-rule="evenodd" d="M17.162 5.94794L16.6773 7.33322C17.392 8.07099 17.8824 8.96779 18.137 9.92728L19.5465 10.1859C19.5909 10.4403 19.622 10.6967 19.6398 10.955L18.3402 11.6048C18.3232 12.6035 18.0628 13.6087 17.5485 14.5242L18.3461 15.7239C18.2002 15.939 18.0427 16.1461 17.8759 16.3451L16.5227 15.8791C15.783 16.6203 14.8912 17.1359 13.9427 17.4133L13.6611 18.8516C13.4103 18.9018 13.1571 18.9382 12.9028 18.9613L12.2886 17.6526C11.3064 17.6541 10.3222 17.4086 9.43197 16.9035L8.23601 17.7377C8.02738 17.5933 7.82618 17.4372 7.63403 17.2713L8.11841 15.8866C7.40387 15.1486 6.91326 14.2513 6.65856 13.2921L5.2493 13.0336C5.2051 12.7797 5.17382 12.5228 5.15635 12.2647L6.45554 11.615C6.47296 10.6162 6.73272 9.61073 7.24723 8.69561L6.4495 7.49553C6.59562 7.28059 6.7529 7.07329 6.91966 6.87428L8.27299 7.34076C9.01238 6.59939 9.90449 6.08324 10.8533 5.80592L11.1346 4.3682C11.3856 4.3182 11.6383 4.28148 11.8927 4.25845L12.5074 5.56734C13.4891 5.56557 14.4735 5.8105 15.3642 6.31622L16.5595 5.48167C16.7683 5.6251 16.9702 5.7826 17.162 5.94794ZM14.5076 8.82355C15.9988 9.9785 16.2632 12.1628 15.0983 13.7014C13.9334 15.24 11.7798 15.5511 10.2884 14.3964C8.79734 13.2412 8.5322 11.0569 9.69738 9.51841C10.862 7.97968 13.0161 7.66847 14.5076 8.82355Z" fill="#76FF9C"/>
<path fill-rule="evenodd" clip-rule="evenodd" d="M20.8444 16.6724L21.2572 18.0817C22.0042 18.2345 22.6917 18.5435 23.2867 18.9741L24.6059 18.3257C24.88 18.5726 25.134 18.8421 25.3643 19.1319L24.6699 20.4443C25.0667 21.0681 25.3398 21.7806 25.4573 22.5464L26.8231 23.0276C26.8414 23.4033 26.8302 23.7786 26.7881 24.1538L25.3936 24.6007C25.229 25.3631 24.9118 26.0682 24.477 26.6817L25.0893 28.0102C24.841 28.294 24.571 28.5574 24.2816 28.7969L23.0038 28.1164C22.3825 28.5318 21.6767 28.8232 20.9206 28.9575L20.4211 30.3553C20.0511 30.3815 19.6821 30.3771 19.3138 30.3417L18.9009 28.9323C18.1543 28.7797 17.4668 28.4707 16.8718 28.04L15.5526 28.6884C15.2782 28.4414 15.0244 28.1716 14.7942 27.8823L15.4882 26.5698C15.0918 25.9461 14.8185 25.2331 14.7009 24.4676L13.3355 23.9863C13.3167 23.6108 13.3286 23.2354 13.3701 22.8603L14.7648 22.4135C14.9292 21.6509 15.2464 20.9459 15.6815 20.3325L15.069 19.0035C15.3171 18.72 15.5874 18.4567 15.8768 18.2173L17.1547 18.8978C17.776 18.4823 18.4822 18.1908 19.2378 18.0567L19.7376 16.659C20.1074 16.6327 20.4767 16.637 20.8444 16.6724ZM20.1664 20.6923C21.6947 20.7112 22.895 21.9871 22.8469 23.5415C22.7987 25.0962 21.5203 26.3409 19.992 26.3219C18.4638 26.3029 17.2635 25.0271 17.3117 23.4724C17.3598 21.918 18.6379 20.6732 20.1664 20.6923Z" fill="#76FF9C"/>
</g>
<g id="Vector_2" filter="url(#filter0_f_10_345)">
<path fill-rule="evenodd" clip-rule="evenodd" d="M17.162 5.94794L16.6773 7.33322C17.392 8.07099 17.8824 8.96779 18.137 9.92728L19.5465 10.1859C19.5909 10.4403 19.622 10.6967 19.6398 10.955L18.3402 11.6048C18.3232 12.6035 18.0628 13.6087 17.5485 14.5242L18.3461 15.7239C18.2002 15.939 18.0427 16.1461 17.8759 16.3451L16.5227 15.8791C15.783 16.6203 14.8912 17.1359 13.9427 17.4133L13.6611 18.8516C13.4103 18.9018 13.1571 18.9382 12.9028 18.9613L12.2886 17.6526C11.3064 17.6541 10.3222 17.4086 9.43197 16.9035L8.23601 17.7377C8.02738 17.5933 7.82618 17.4372 7.63403 17.2713L8.11841 15.8866C7.40387 15.1486 6.91326 14.2513 6.65856 13.2921L5.2493 13.0336C5.2051 12.7797 5.17382 12.5228 5.15635 12.2647L6.45554 11.615C6.47296 10.6162 6.73272 9.61073 7.24723 8.69561L6.4495 7.49553C6.59562 7.28059 6.7529 7.07329 6.91966 6.87428L8.27299 7.34076C9.01238 6.59939 9.90449 6.08324 10.8533 5.80592L11.1346 4.3682C11.3856 4.3182 11.6383 4.28148 11.8927 4.25845L12.5074 5.56734C13.4891 5.56557 14.4735 5.8105 15.3642 6.31622L16.5595 5.48167C16.7683 5.6251 16.9702 5.7826 17.162 5.94794ZM14.5076 8.82355C15.9988 9.9785 16.2632 12.1628 15.0983 13.7014C13.9334 15.24 11.7798 15.5511 10.2884 14.3964C8.79734 13.2412 8.5322 11.0569 9.69738 9.51841C10.862 7.97968 13.0161 7.66847 14.5076 8.82355Z" fill="#76FF9C"/>
<path fill-rule="evenodd" clip-rule="evenodd" d="M20.8444 16.6724L21.2572 18.0817C22.0042 18.2345 22.6917 18.5435 23.2867 18.9741L24.6059 18.3257C24.88 18.5726 25.134 18.8421 25.3643 19.1319L24.6699 20.4443C25.0667 21.0681 25.3398 21.7806 25.4573 22.5464L26.8231 23.0276C26.8414 23.4033 26.8302 23.7786 26.7881 24.1538L25.3936 24.6007C25.229 25.3631 24.9118 26.0682 24.477 26.6817L25.0893 28.0102C24.841 28.294 24.571 28.5574 24.2816 28.7969L23.0038 28.1164C22.3825 28.5318 21.6767 28.8232 20.9206 28.9575L20.4211 30.3553C20.0511 30.3815 19.6821 30.3771 19.3138 30.3417L18.9009 28.9323C18.1543 28.7797 17.4668 28.4707 16.8718 28.04L15.5526 28.6884C15.2782 28.4414 15.0244 28.1716 14.7942 27.8823L15.4882 26.5698C15.0918 25.9461 14.8185 25.2331 14.7009 24.4676L13.3355 23.9863C13.3167 23.6108 13.3286 23.2354 13.3701 22.8603L14.7648 22.4135C14.9292 21.6509 15.2464 20.9459 15.6815 20.3325L15.069 19.0035C15.3171 18.72 15.5874 18.4567 15.8768 18.2173L17.1547 18.8978C17.776 18.4823 18.4822 18.1908 19.2378 18.0567L19.7376 16.659C20.1074 16.6327 20.4767 16.637 20.8444 16.6724ZM20.1664 20.6923C21.6947 20.7112 22.895 21.9871 22.8469 23.5415C22.7987 25.0962 21.5203 26.3409 19.992 26.3219C18.4638 26.3029 17.2635 25.0271 17.3117 23.4724C17.3598 21.918 18.6379 20.6732 20.1664 20.6923Z" fill="#76FF9C"/>
</g>
</g>
<defs>
<filter id="filter0_f_10_345" x="1.15637" y="0.258545" width="29.6752" height="34.1135" filterUnits="userSpaceOnUse" color-interpolation-filters="sRGB">
<feFlood flood-opacity="0" result="BackgroundImageFix"/>
<feBlend mode="normal" in="SourceGraphic" in2="BackgroundImageFix" result="shape"/>
<feGaussianBlur stdDeviation="2" result="effect1_foregroundBlur_10_345"/>
</filter>
</defs>
</svg>
