<svg width="17" height="18" viewBox="0 0 17 18" fill="none" xmlns="http://www.w3.org/2000/svg">
<path id="Vector" fill-rule="evenodd" clip-rule="evenodd" d="M3.97378 13.9664L1.93397 15.0853C1.04065 14.1024 0.388111 12.9421 0.00163002 11.6998L1.98002 10.4753C1.76689 9.51549 1.75991 8.50728 1.97845 7.5237L0 6.29924C0.191985 5.6848 0.452674 5.08184 0.78482 4.50075C1.11697 3.91966 1.50359 3.39014 1.93441 2.91499L3.97346 4.03341C4.7075 3.35045 5.57542 2.85245 6.50493 2.55897L6.56555 0.216153C7.82398 -0.0669557 9.14504 -0.0762765 10.4344 0.213724L10.495 2.55747C10.9548 2.70322 11.406 2.90179 11.8408 3.1553C12.2755 3.40882 12.6714 3.70424 13.0262 4.03358L15.066 2.91475C15.9593 3.89761 16.6119 5.05788 16.9984 6.30025L15.02 7.52467C15.2331 8.48451 15.2401 9.49272 15.0216 10.4763L17 11.7008C16.808 12.3152 16.5473 12.9182 16.2152 13.4992C15.883 14.0803 15.4964 14.6099 15.0656 15.085L13.0265 13.9666C12.2925 14.6496 11.4246 15.1476 10.4951 15.441L10.4345 17.7838C9.17603 18.067 7.85496 18.0763 6.56561 17.7863L6.50497 15.4425C6.04517 15.2968 5.59396 15.0982 5.15923 14.8447C4.7245 14.5912 4.32865 14.2958 3.97378 13.9664ZM6.59099 12.3398C8.41712 13.4048 10.7522 12.7728 11.8065 10.9283C12.8608 9.08372 12.2351 6.72512 10.409 5.66017C8.58288 4.59523 6.24781 5.22722 5.19349 7.07175C4.13918 8.91629 4.76486 11.2749 6.59099 12.3398Z" fill="white"/>
</svg>
