<svg width="40" height="40" viewBox="0 0 40 40" fill="none" xmlns="http://www.w3.org/2000/svg">
<g id="Group 81">
<g id="Group 88">
<path id="Ellipse 15" d="M40 20C40 31.0457 31.0457 40 20 40C8.9543 40 0 31.0457 0 20C0 8.9543 8.9543 0 20 0C31.0457 0 40 8.9543 40 20ZM4.00202 20C4.00202 28.8354 11.1646 35.998 20 35.998C28.8354 35.998 35.998 28.8354 35.998 20C35.998 11.1646 28.8354 4.00202 20 4.00202C11.1646 4.00202 4.00202 11.1646 4.00202 20Z" fill="#C4FF48" fill-opacity="0.17"/>
<path id="Ellipse 16" d="M36 20C36 28.8366 28.8366 36 20 36C11.1634 36 4 28.8366 4 20C4 11.1634 11.1634 4 20 4C28.8366 4 36 11.1634 36 20ZM6.49308 20C6.49308 27.4597 12.5403 33.5069 20 33.5069C27.4597 33.5069 33.5069 27.4597 33.5069 20C33.5069 12.5403 27.4597 6.49308 20 6.49308C12.5403 6.49308 6.49308 12.5403 6.49308 20Z" fill="#C4FF48"/>
<g id="GritDSGN WalkMan" filter="url(#filter0_d_10_181)">
<path id="Vector 2" d="M22.0001 23.0164L20.3497 24.4727C20.0427 24.7435 20.0437 25.2225 20.3518 25.4921C20.6166 25.7238 21.0146 25.7146 21.2685 25.4709L23.6531 23.1817C23.8865 22.9576 23.8634 22.5777 23.6045 22.3836L21.755 20.9965C21.2806 20.6407 21.104 20.0108 21.3242 19.4602L21.7378 18.4262L22.3912 17.2501L22.3957 17.2418C22.4191 17.1966 22.6198 16.7871 22.3936 16.459C22.052 15.9638 21.4117 15.7815 20.8114 15.7415L19.7706 15.6721L19.3071 16.4833C19.2665 16.5544 19.2326 16.6291 19.2059 16.7065L18.0687 20.0046C17.9899 20.2329 18.0772 20.4855 18.2802 20.6164L22.0001 23.0164Z" fill="#C4FF48"/>
<path id="Vector 1" d="M17.1106 23.3904L17.8035 21.3115L19.2461 22.3607L18.608 24.0929C18.4234 24.5939 18.1374 25.0515 17.768 25.437L15.8347 27.4543C15.5386 27.7633 15.0556 27.7952 14.7215 27.5278C14.3367 27.2201 14.3049 26.6462 14.6533 26.2978L16.3822 24.5689C16.7132 24.2379 16.9625 23.8344 17.1106 23.3904Z" fill="#C4FF48"/>
<circle id="Ellipse 164" cx="21.7385" cy="13.7049" r="1.70492" fill="#C4FF48"/>
<g id="Group 7">
<rect id="Rectangle 18" x="16.0479" y="15.7222" width="1.57377" height="4.41011" rx="0.786885" transform="rotate(2.75674 16.0479 15.7222)" fill="#C4FF48"/>
<rect id="Rectangle 19" x="20.5083" y="15.6721" width="1.57377" height="4.49467" rx="0.786885" transform="rotate(89.7816 20.5083 15.6721)" fill="#C4FF48"/>
</g>
<g id="Group 8">
<rect id="Rectangle 18_2" width="1.57377" height="4.41011" rx="0.786885" transform="matrix(0.875524 -0.483174 -0.483174 -0.875524 22.774 20.4087)" fill="#C4FF48"/>
<rect id="Rectangle 19_2" width="1.57377" height="4.49467" rx="0.786885" transform="matrix(-0.437081 -0.899422 -0.899422 0.437081 26.8002 18.489)" fill="#C4FF48"/>
</g>
</g>
</g>
</g>
<defs>
<filter id="filter0_d_10_181" x="14.4113" y="12" width="12.1243" height="15.709" filterUnits="userSpaceOnUse" color-interpolation-filters="sRGB">
<feFlood flood-opacity="0" result="BackgroundImageFix"/>
<feColorMatrix in="SourceAlpha" type="matrix" values="0 0 0 0 0 0 0 0 0 0 0 0 0 0 0 0 0 0 127 0" result="hardAlpha"/>
<feOffset/>
<feComposite in2="hardAlpha" operator="out"/>
<feColorMatrix type="matrix" values="0 0 0 0 0 0 0 0 0 0 0 0 0 0 0 0 0 0 1 0"/>
<feBlend mode="normal" in2="BackgroundImageFix" result="effect1_dropShadow_10_181"/>
<feBlend mode="normal" in="SourceGraphic" in2="effect1_dropShadow_10_181" result="shape"/>
</filter>
</defs>
</svg>
