<svg width="40" height="40" viewBox="0 0 40 40" fill="none" xmlns="http://www.w3.org/2000/svg">
<g id="Group 87">
<path id="Ellipse 15" d="M40 20C40 31.0457 31.0457 40 20 40C8.9543 40 0 31.0457 0 20C0 8.9543 8.9543 0 20 0C31.0457 0 40 8.9543 40 20ZM4.00202 20C4.00202 28.8354 11.1646 35.998 20 35.998C28.8354 35.998 35.998 28.8354 35.998 20C35.998 11.1646 28.8354 4.00202 20 4.00202C11.1646 4.00202 4.00202 11.1646 4.00202 20Z" fill="#00C2FF" fill-opacity="0.17"/>
<path id="Ellipse 16" d="M36 20C36 28.8366 28.8366 36 20 36C11.1634 36 4 28.8366 4 20C4 11.1634 11.1634 4 20 4C28.8366 4 36 11.1634 36 20ZM6.49308 20C6.49308 27.4597 12.5403 33.5069 20 33.5069C27.4597 33.5069 33.5069 27.4597 33.5069 20C33.5069 12.5403 27.4597 6.49308 20 6.49308C12.5403 6.49308 6.49308 12.5403 6.49308 20Z" fill="#00C2FF"/>
<path id="Ellipse 165" d="M25 21.3846C25 23.9336 22.7614 26 20 26C17.2386 26 15 23.9336 15 21.3846C15 19.4244 17.9567 16.1121 19.3228 14.6863C19.6959 14.297 20.3041 14.297 20.6772 14.6863C22.0433 16.1121 25 19.4244 25 21.3846Z" fill="#00C2FF"/>
</g>
</svg>
