<svg width="38" height="40" viewBox="0 0 38 40" fill="none" xmlns="http://www.w3.org/2000/svg">
<path id="Vector" fill-rule="evenodd" clip-rule="evenodd" d="M19.9164 1.84615C29.9357 2.33846 38 10.7077 38 20.9231C38 31.3846 29.4469 40 18.9389 40C8.55306 40 0 31.3846 0 20.9231C0 10.7077 7.94212 2.33846 17.9614 1.84615L16.9839 7.63077C13.5627 8.12308 10.508 10.0923 8.43087 12.6769L11.9743 14.7692L10.508 17.2308L6.96463 15.1385C6.10932 16.8615 5.74277 18.8308 5.74277 20.9231C5.74277 28.3077 11.6077 34.2154 18.9389 34.2154C26.2701 34.2154 32.2572 28.3077 32.2572 20.9231C32.2572 18.8308 31.7685 16.8615 31.0354 15.1385L27.3698 17.2308L26.0257 14.7692L29.4469 12.6769C27.492 10.0923 24.4373 8.12308 20.8939 7.63077L19.9164 1.84615ZM22.1158 18.7077C22.6045 19.3231 22.8489 20.0615 22.8489 20.9231C22.8489 23.0154 21.1383 24.8615 18.9389 24.8615C16.8617 24.8615 15.0289 23.0154 15.0289 20.9231C15.0289 20.0615 15.3955 19.3231 15.7621 18.7077L18.9389 0L22.1158 18.7077ZM18.9389 18.9538C20.0386 18.9538 20.8939 19.8154 20.8939 20.9231C20.8939 21.9077 20.0386 22.7692 18.9389 22.7692C17.9614 22.7692 17.1061 21.9077 17.1061 20.9231C17.1061 19.8154 17.9614 18.9538 18.9389 18.9538Z" fill="#444444"/>
</svg>
